<svg width="52" height="60" viewBox="0 0 52 60" fill="none" xmlns="http://www.w3.org/2000/svg">
<rect x="1.26453" y="9.20588" width="45.2941" height="28.8235" rx="3.08824" fill="#FFBA09" stroke="white" stroke-width="2.05882"/>
<rect x="18.7646" y="2" width="10.2941" height="6.17647" fill="#D00000" stroke="white" stroke-width="2.05882"/>
<path d="M2.29395 12.2941C2.29395 11.1571 3.21571 10.2353 4.35277 10.2353H10.5292V37H4.35277C3.21571 37 2.29395 36.0782 2.29395 34.9412V12.2941Z" fill="#DC2F02"/>
<path d="M10.5293 32.8823H45.5293V34.9411C45.5293 36.0782 44.6075 37 43.4705 37H10.5293V32.8823Z" fill="#DC2F02"/>
<path d="M12.5879 39.0588H20.8232C21.9602 39.0588 22.882 39.9806 22.882 41.1176V57.5882C22.882 58.7253 21.9602 59.647 20.8232 59.647H14.6467C13.5097 59.647 12.5879 58.7253 12.5879 57.5882V39.0588Z" fill="white"/>
<rect x="4.35254" y="43.1765" width="6.17647" height="12.3529" rx="2.05882" fill="white"/>
<rect x="39.3525" y="49.3529" width="6.17647" height="12.3529" rx="2.05882" transform="rotate(-90 39.3525 49.3529)" fill="white"/>
<path d="M27 41.1176C27 39.9806 27.9218 39.0588 29.0588 39.0588H37.2941V57.5882C37.2941 58.7253 36.3724 59.647 35.2353 59.647H29.0588C27.9218 59.647 27 58.7253 27 57.5882V41.1176Z" fill="white"/>
<rect x="20.8232" y="39.0588" width="10.2941" height="12.3529" fill="white"/>
<rect x="18.7646" y="14.3529" width="8.23529" height="12.3529" rx="2.05882" fill="black"/>
<rect x="33.1768" y="14.3529" width="8.23529" height="12.3529" rx="2.05882" fill="black"/>
</svg>
