<svg width="327" height="63" viewBox="0 0 327 63" fill="none" xmlns="http://www.w3.org/2000/svg">
<rect x="0.620117" y="8.89546" width="46.7011" height="28.9102" rx="2.22386" fill="#FFBA09"/>
<rect x="18.4111" width="11.1193" height="6.67159" fill="#D00000"/>
<path d="M0.620117 11.1193C0.620117 9.89112 1.61577 8.89546 2.84398 8.89546H9.51557V37.8057H2.84398C1.61578 37.8057 0.620117 36.81 0.620117 35.5818V11.1193Z" fill="#DC2F02"/>
<path d="M9.51465 33.3579H47.3203V35.5818C47.3203 36.81 46.3247 37.8057 45.0965 37.8057H9.51465V33.3579Z" fill="#DC2F02"/>
<path d="M11.7402 40.0295H20.6357C21.8639 40.0295 22.8595 41.0252 22.8595 42.2534V60.0443C22.8595 61.2725 21.8639 62.2682 20.6357 62.2682H13.9641C12.7359 62.2682 11.7402 61.2725 11.7402 60.0443V40.0295Z" fill="white"/>
<rect x="2.84375" y="44.4772" width="6.67159" height="13.3432" rx="2.22386" fill="white"/>
<rect x="40.6494" y="51.1488" width="6.67159" height="13.3432" rx="2.22386" transform="rotate(-90 40.6494 51.1488)" fill="white"/>
<path d="M27.3066 42.2534C27.3066 41.0252 28.3023 40.0295 29.5305 40.0295H38.426V60.0443C38.426 61.2725 37.4303 62.2682 36.2021 62.2682H29.5305C28.3023 62.2682 27.3066 61.2725 27.3066 60.0443V42.2534Z" fill="white"/>
<rect x="20.6348" y="40.0295" width="11.1193" height="13.3432" fill="white"/>
<rect x="18.4111" y="13.3432" width="8.89545" height="13.3432" rx="2.22386" fill="black"/>
<rect x="33.9785" y="13.3432" width="8.89545" height="13.3432" rx="2.22386" fill="black"/>
<path d="M68.3043 29.2293H84.2182V38.4263H68.3043V29.2293ZM69.131 50H56.9373V13.8321H86.3366V23.0291H69.131V50ZM89.827 50V11.6621H101.504V50H89.827ZM123.782 50V44.9882L122.955 43.6448V34.1378C122.955 32.76 122.525 31.7094 121.664 30.986C120.837 30.2627 119.476 29.901 117.582 29.901C116.307 29.901 115.016 30.1077 113.707 30.521C112.398 30.8999 111.278 31.4338 110.348 32.1227L106.628 24.4242C108.282 23.3908 110.262 22.5985 112.57 22.0474C114.878 21.4963 117.134 21.2207 119.339 21.2207C124.195 21.2207 127.95 22.3058 130.602 24.4758C133.289 26.6459 134.632 30.0905 134.632 34.8095V50H123.782ZM115.773 50.5167C113.466 50.5167 111.537 50.1206 109.987 49.3283C108.437 48.5361 107.265 47.4855 106.473 46.1765C105.681 44.8332 105.285 43.352 105.285 41.7331C105.285 39.9074 105.75 38.3574 106.68 37.0829C107.61 35.8084 109.022 34.8439 110.917 34.1895C112.846 33.535 115.274 33.2078 118.202 33.2078H124.092V38.8396H120.062C118.822 38.8396 117.909 39.0463 117.323 39.4597C116.772 39.8386 116.497 40.4241 116.497 41.2164C116.497 41.8708 116.738 42.422 117.22 42.8698C117.737 43.2831 118.426 43.4898 119.287 43.4898C120.079 43.4898 120.802 43.2831 121.457 42.8698C122.146 42.422 122.645 41.7331 122.955 40.803L124.454 44.2648C124.006 46.366 123.059 47.9333 121.612 48.9666C120.165 50 118.219 50.5167 115.773 50.5167ZM147.183 50L135.816 21.7374H147.803L156.432 44.6782H150.386L159.583 21.7374H170.64L159.273 50H147.183ZM186.601 50.5167C183.398 50.5167 180.556 49.8967 178.076 48.6566C175.63 47.3821 173.701 45.6426 172.289 43.4381C170.877 41.2336 170.171 38.7018 170.171 35.8429C170.171 32.9839 170.877 30.4521 172.289 28.2476C173.701 26.0431 175.63 24.3208 178.076 23.0808C180.556 21.8407 183.398 21.2207 186.601 21.2207C189.805 21.2207 192.646 21.8407 195.126 23.0808C197.606 24.3208 199.535 26.0431 200.913 28.2476C202.325 30.4521 203.032 32.9839 203.032 35.8429C203.032 38.7018 202.325 41.2336 200.913 43.4381C199.535 45.6426 197.606 47.3821 195.126 48.6566C192.646 49.8967 189.805 50.5167 186.601 50.5167ZM186.601 41.4231C187.462 41.4231 188.237 41.2164 188.926 40.803C189.615 40.3897 190.166 39.7697 190.58 38.943C190.993 38.0818 191.2 37.0485 191.2 35.8429C191.2 34.6028 190.993 33.5867 190.58 32.7944C190.166 31.9677 189.615 31.3477 188.926 30.9344C188.237 30.521 187.462 30.3144 186.601 30.3144C185.74 30.3144 184.965 30.521 184.276 30.9344C183.587 31.3477 183.036 31.9677 182.623 32.7944C182.209 33.5867 182.003 34.6028 182.003 35.8429C182.003 37.0485 182.209 38.0818 182.623 38.943C183.036 39.7697 183.587 40.3897 184.276 40.803C184.965 41.2164 185.74 41.4231 186.601 41.4231ZM206.686 50V21.7374H217.795V30.2627L215.987 27.8343C216.848 25.6298 218.226 23.9764 220.12 22.8741C222.015 21.7718 224.288 21.2207 226.94 21.2207V31.5544C226.424 31.4855 225.959 31.4338 225.545 31.3994C225.166 31.3649 224.77 31.3477 224.357 31.3477C222.6 31.3477 221.153 31.8127 220.017 32.7428C218.915 33.6383 218.363 35.2056 218.363 37.4446V50H206.686Z" fill="white"/>
<path d="M230.612 50V13.8321H249.936C254.93 13.8321 258.616 14.7277 260.993 16.5189C263.369 18.2756 264.558 20.5318 264.558 23.2875C264.558 25.1131 264.041 26.7492 263.008 28.1959C262.009 29.6082 260.545 30.7277 258.616 31.5544C256.687 32.3811 254.31 32.7944 251.486 32.7944L252.519 30.0043C255.344 30.0043 257.772 30.4005 259.804 31.1927C261.871 31.985 263.455 33.1389 264.558 34.6545C265.694 36.1357 266.263 37.9268 266.263 40.028C266.263 43.1626 264.954 45.6082 262.336 47.3649C259.753 49.1216 255.964 50 250.969 50H230.612ZM242.599 41.4747H249.936C251.279 41.4747 252.278 41.2336 252.932 40.7514C253.621 40.2691 253.966 39.563 253.966 38.633C253.966 37.7029 253.621 36.9968 252.932 36.5146C252.278 36.0323 251.279 35.7912 249.936 35.7912H241.772V27.7309H248.282C249.66 27.7309 250.659 27.507 251.279 27.0592C251.933 26.577 252.261 25.9053 252.261 25.0442C252.261 24.1486 251.933 23.4769 251.279 23.0291C250.659 22.5813 249.66 22.3574 248.282 22.3574H242.599V41.4747ZM285.144 50.5167C281.941 50.5167 279.099 49.8967 276.619 48.6566C274.173 47.3821 272.244 45.6426 270.832 43.4381C269.42 41.2336 268.714 38.7018 268.714 35.8429C268.714 32.9839 269.42 30.4521 270.832 28.2476C272.244 26.0431 274.173 24.3208 276.619 23.0808C279.099 21.8407 281.941 21.2207 285.144 21.2207C288.348 21.2207 291.19 21.8407 293.67 23.0808C296.15 24.3208 298.079 26.0431 299.457 28.2476C300.869 30.4521 301.575 32.9839 301.575 35.8429C301.575 38.7018 300.869 41.2336 299.457 43.4381C298.079 45.6426 296.15 47.3821 293.67 48.6566C291.19 49.8967 288.348 50.5167 285.144 50.5167ZM285.144 41.4231C286.006 41.4231 286.781 41.2164 287.469 40.803C288.158 40.3897 288.709 39.7697 289.123 38.943C289.536 38.0818 289.743 37.0485 289.743 35.8429C289.743 34.6028 289.536 33.5867 289.123 32.7944C288.709 31.9677 288.158 31.3477 287.469 30.9344C286.781 30.521 286.006 30.3144 285.144 30.3144C284.283 30.3144 283.508 30.521 282.819 30.9344C282.13 31.3477 281.579 31.9677 281.166 32.7944C280.753 33.5867 280.546 34.6028 280.546 35.8429C280.546 37.0485 280.753 38.0818 281.166 38.943C281.579 39.7697 282.13 40.3897 282.819 40.803C283.508 41.2164 284.283 41.4231 285.144 41.4231ZM318.87 50.5167C314.978 50.5167 311.947 49.5867 309.776 47.7266C307.606 45.8321 306.521 42.9387 306.521 39.0463V15.3822H318.198V38.943C318.198 39.8041 318.422 40.4758 318.87 40.958C319.352 41.4403 319.938 41.6814 320.627 41.6814C321.626 41.6814 322.504 41.423 323.262 40.9064L326.052 49.0183C325.156 49.535 324.071 49.9139 322.797 50.155C321.557 50.3961 320.248 50.5167 318.87 50.5167ZM302.646 31.8127V23.2875H323.985V31.8127H302.646Z" fill="#D00000"/>
</svg>
