<svg width="70" height="70" viewBox="0 0 70 70" fill="none" xmlns="http://www.w3.org/2000/svg">
<path d="M14.583 37.2155C14.583 33.2554 14.583 31.2753 15.3835 29.5349C16.184 27.7944 17.6874 26.5058 20.6942 23.9285L23.6108 21.4285C29.0455 16.7702 31.7628 14.4411 34.9997 14.4411C38.2365 14.4411 40.9538 16.7702 46.3885 21.4285L49.3052 23.9285C52.3119 26.5058 53.8153 27.7944 54.6158 29.5349C55.4163 31.2753 55.4163 33.2554 55.4163 37.2155V49.5833C55.4163 55.0831 55.4163 57.8329 53.7078 59.5415C51.9993 61.25 49.2494 61.25 43.7497 61.25H26.2497C20.75 61.25 18.0001 61.25 16.2916 59.5415C14.583 57.8329 14.583 55.0831 14.583 49.5833V37.2155Z" stroke="white" stroke-width="4.11765"/>
<path d="M42.2913 61.25V45.8088C42.2913 44.6718 41.3696 43.75 40.2325 43.75H29.7668C28.6298 43.75 27.708 44.6718 27.708 45.8088V61.25" stroke="white" stroke-width="4.11765" stroke-linecap="round" stroke-linejoin="round"/>
</svg>

