<svg width="68" height="117" viewBox="0 0 68 117" fill="none" xmlns="http://www.w3.org/2000/svg">
<rect y="12.1925" width="44.3364" height="44.3364" fill="#D00000"/>
<rect x="22.7227" y="34.9149" width="44.3364" height="44.3364" fill="#FFBA08"/>
<g filter="url(#filter0_d_298_1625)">
<rect x="22.7227" y="34.9149" width="21.614" height="21.614" fill="#DC2F02"/>
</g>
<path d="M9.22197 50.984C9.22197 49.7071 9.50572 48.3829 10.0732 47.0114C10.6407 45.5927 11.3974 44.2921 12.3432 43.1098C13.2891 41.8803 14.3059 40.9581 15.3936 40.3433L36.8879 27.9291V35.0229L15.3936 47.4371V72.2654C15.3936 70.9886 15.6773 69.6644 16.2448 68.2929C16.8124 66.8741 17.5454 65.5736 18.4439 64.3913C19.3898 63.1617 20.4066 62.2395 21.4943 61.6247L36.8879 52.7574V59.8513L15.3936 72.2654V90L9.22197 93.5469V50.984ZM36.8879 52.7574L21.4943 61.6247C20.4066 62.2395 19.3898 63.1617 18.4439 64.3913C17.5454 65.5736 16.8124 66.8741 16.2448 68.2929C15.6773 69.6644 15.3936 70.9886 15.3936 72.2654L9.22197 68.7185C9.22197 67.4417 9.50572 66.1175 10.0732 64.746C10.6407 63.3272 11.3974 62.0267 12.3432 60.8444C13.2891 59.6148 14.3059 58.6926 15.3936 58.0778L30.7162 49.2105L36.8879 52.7574ZM36.8879 27.9291L15.3936 40.3433C14.3059 40.9581 13.2891 41.8803 12.3432 43.1098C11.3974 44.2921 10.6407 45.5927 10.0732 47.0114C9.50572 48.3829 9.22197 49.7071 9.22197 50.984V93.5469L3.05034 90V47.4371C3.05034 46.1602 3.3341 44.836 3.9016 43.4645C4.46911 42.0458 5.22578 40.7452 6.17162 39.5629C7.11747 38.3333 8.13425 37.4111 9.22197 36.7963L30.7162 24.3822L36.8879 27.9291Z" fill="white"/>
<defs>
<filter id="filter0_d_298_1625" x="20.5058" y="34.9149" width="26.0479" height="26.0476" filterUnits="userSpaceOnUse" color-interpolation-filters="sRGB">
<feFlood flood-opacity="0" result="BackgroundImageFix"/>
<feColorMatrix in="SourceAlpha" type="matrix" values="0 0 0 0 0 0 0 0 0 0 0 0 0 0 0 0 0 0 127 0" result="hardAlpha"/>
<feOffset dy="2.21682"/>
<feGaussianBlur stdDeviation="1.10841"/>
<feComposite in2="hardAlpha" operator="out"/>
<feColorMatrix type="matrix" values="0 0 0 0 0 0 0 0 0 0 0 0 0 0 0 0 0 0 0.25 0"/>
<feBlend mode="normal" in2="BackgroundImageFix" result="effect1_dropShadow_298_1625"/>
<feBlend mode="normal" in="SourceGraphic" in2="effect1_dropShadow_298_1625" result="shape"/>
</filter>
</defs>
</svg>
