<svg width="62" height="63" viewBox="0 0 62 63" fill="none" xmlns="http://www.w3.org/2000/svg">
<path d="M10.4111 23.5735C10.4111 16.2945 10.4111 12.6549 12.6724 10.3936C14.9337 8.13232 18.5733 8.13232 25.8523 8.13232H36.1464C43.4255 8.13232 47.065 8.13232 49.3263 10.3936C51.5876 12.6549 51.5876 16.2945 51.5876 23.5735V41.1446C51.5876 48.0501 51.5876 51.5028 49.4148 52.5589C47.242 53.615 44.527 51.4818 39.0971 47.2154L37.3593 45.85C34.3061 43.4511 32.7795 42.2516 30.9994 42.2516C29.2192 42.2516 27.6926 43.4511 24.6394 45.85L22.9017 47.2154C17.4717 51.4818 14.7568 53.615 12.5839 52.5589C10.4111 51.5028 10.4111 48.0501 10.4111 41.1446V23.5735Z" stroke="white" stroke-width="4.11765"/>
</svg>